<?xml version="1.0" encoding="UTF-8"?>
<!DOCTYPE svg PUBLIC "-//W3C//DTD SVG 1.1//EN" "http://www.w3.org/Graphics/SVG/1.1/DTD/svg11.dtd">
<!-- Creator: CorelDRAW X8 -->
<svg xmlns="http://www.w3.org/2000/svg" xml:space="preserve" width="2389px" height="2480px" version="1.1" style="shape-rendering:geometricPrecision; text-rendering:geometricPrecision; image-rendering:optimizeQuality; fill-rule:evenodd; clip-rule:evenodd"
viewBox="0 0 2301 2389"
 xmlns:xlink="http://www.w3.org/1999/xlink">
 <defs>
  <style type="text/css">
   <![CDATA[
    .fil0 {fill:#3C8DBC}
   ]]>
  </style>
 </defs>
 <g id="Layer_x0020_1">
  <metadata id="CorelCorpID_0Corel-Layer"/>
  <path class="fil0" d="M2245 933c43,0 71,48 48,85 -117,195 -331,326 -576,326 -370,0 -669,-299 -672,-668 -2,-371 301,-676 672,-676 244,0 458,130 576,325 22,38 -4,86 -48,86l-491 0 -186 261 186 261 491 0zm-801 434l-934 935c-117,116 -306,116 -423,0 -116,-117 -116,-306 0,-423l935 -934c75,192 230,347 422,422zm-959 649c0,-62 -50,-112 -112,-112 -62,0 -112,50 -112,112 0,62 50,112 112,112 62,0 112,-50 112,-112z"/>
 </g>
</svg>
